#N canvas 38 88 1326 752 10;
#X text 318 35 Generer une suite de Syracuse (aka «Collatz hailstone
numbers»);
#X text 319 72 D'apres «An introduction to procedural audio and its
application in computer games» (Andy Farnell \, 2007);
#X text 319 111 https://fr.wikipedia.org/wiki/Conjecture_de_Syracuse
;
#X text 319 129 http://www.cadaeic.net/hailmus.htm;
#X obj 907 419 int;
#X obj 907 441 max 1;
#X msg 803 92 1174;
#X floatatom 907 240 9 0 0 0 - - -, f 9;
#X obj 907 215 f;
#X obj 907 470 int 0;
#X obj 907 492 t f f;
#X obj 887 539 t f f;
#X obj 887 596 spigot;
#X obj 887 618 * 3;
#X obj 887 640 + 1;
#X obj 939 515 % 2;
#X obj 944 596 spigot;
#X obj 944 618 * 0.5;
#X obj 939 539 t f f;
#X obj 971 570 - 1;
#X obj 868 134 bng 15 250 50 0 empty empty empty 17 7 0 10 -262144
-1 -1;
#X obj 939 286 != 1;
#X obj 939 308 sel 0;
#X obj 992 361 bng 15 250 50 0 empty empty empty 17 7 0 10 -262144
-1 -1;
#X obj 907 262 t f f;
#X obj 907 395 spigot;
#X msg 946 371 1;
#X obj 1022 218 expr rint((10 / 3) * log10($f1));
#X obj 868 68 tgl 30 0 empty empty empty 17 7 0 10 -257985 -1 -1 0
1;
#X obj 868 107 metro 300;
#X obj 1106 647 makenote 64 250;
#X obj 1106 681 noteout 1;
#X floatatom 1031 240 5 0 0 0 - - -, f 5;
#X msg 806 160 1175;
#X obj 992 383 s \$0-off;
#X obj 868 18 r \$0-off;
#X msg 868 43 0;
#X msg 804 115 7643;
#X obj 925 186 r \$0-next;
#X obj 914 684 s \$0-next;
#X msg 805 138 213;
#X obj 326 230 loadbang;
#X msg 326 258 \; do_majeur 0 48 50 52 53 55 57 59 60 62 64 65 67 69
71 72 74 76 77 79 81 83 84 86 88 89 91 93 95 96;
#X obj 325 208 table do_majeur 27;
#X obj 1242 376 vradio 15 1 1 7 empty empty octave 0 -8 0 10 -257985
-1 -1 3;
#X floatatom 1242 512 5 0 0 0 - - -, f 5;
#X obj 1242 533 * 12;
#X obj 1242 488 - 3;
#X obj 1214 330 loadbang;
#X obj 1022 267 s \$0-nombre;
#X obj 1106 376 r \$0-nombre;
#X obj 1106 434 tabread do_majeur;
#X obj 1106 582 +;
#X obj 1118 608 s \$0-NOTE;
#X obj 260 466 nbx 2 40 -1e+37 1e+37 0 0 empty empty empty 0 -8 0 32
-257985 -1 -1 50 256;
#X floatatom 260 595 5 0 0 2 _note - -, f 5;
#X floatatom 348 617 5 0 0 0 index - -, f 5;
#X obj 260 440 r \$0-NOTE;
#X obj 325 564 f;
#X obj 359 564 + 1;
#X obj 325 590 mod 100;
#X obj 260 641 tabwrite \$0-pianoroll;
#X obj 260 514 t f b;
#X obj 343 362 loadbang;
#X msg 343 508 0;
#X obj 355 464 r \$0-off;
#N canvas 0 50 450 250 (subpatch) 0;
#X array \$0-pianoroll 100 float 2;
#X coords 0 128 100 0 400 256 1 0 0;
#X restore 430 402 graph;
#X obj 1106 405 - 1;
#X obj 9 107 cnv 15 200 550 empty empty empty 20 12 0 14 -233017 -66577
0;
#X obj 38 182 int;
#X obj 38 207 max 1;
#X obj 38 229 t b f;
#X obj 38 313 until;
#X obj 100 166 r \$0-n+1;
#X obj 116 194 != 1;
#X obj 116 216 sel 0;
#X obj 68 376 int 0;
#X obj 88 408 t f f;
#X obj 68 455 t f f;
#X obj 68 512 spigot;
#X obj 68 534 * 3;
#X obj 68 556 + 1;
#X obj 95 600 s \$0-n+1;
#X obj 120 431 % 2;
#X obj 125 512 spigot;
#X obj 125 534 * 0.5;
#X obj 120 455 t f f;
#X obj 152 486 - 1;
#X msg 38 82 1174;
#X obj 31 663 print;
#X text 59 115 afficher une suite;
#X text 1017 196 Convertir en petits entiers;
#X obj 1073 66 ctlout 123 1;
#X msg 1073 41 0;
#X obj 1073 18 bng 15 250 50 0 empty empty ALL_NOTES_OFF 17 7 0 10
-258113 -1 -1;
#X msg 1193 41 0;
#X obj 1193 18 bng 15 250 50 0 empty empty ALL_SOUNDS_OFF 17 7 0 10
-258113 -1 -1;
#X obj 1193 66 ctlout 120 1;
#X msg 1214 355 3, f 1;
#X connect 4 0 5 0;
#X connect 5 0 9 0;
#X connect 6 0 8 1;
#X connect 7 0 24 0;
#X connect 8 0 7 0;
#X connect 9 0 10 0;
#X connect 10 0 11 0;
#X connect 10 1 15 0;
#X connect 11 0 12 0;
#X connect 11 1 16 0;
#X connect 12 0 13 0;
#X connect 13 0 14 0;
#X connect 14 0 39 0;
#X connect 15 0 18 0;
#X connect 16 0 17 0;
#X connect 17 0 39 0;
#X connect 18 0 12 1;
#X connect 18 1 19 0;
#X connect 19 0 16 1;
#X connect 20 0 8 0;
#X connect 21 0 22 0;
#X connect 22 0 23 0;
#X connect 22 1 26 0;
#X connect 23 0 34 0;
#X connect 24 0 25 0;
#X connect 24 1 21 0;
#X connect 25 0 4 0;
#X connect 26 0 25 1;
#X connect 27 0 32 0;
#X connect 27 0 49 0;
#X connect 28 0 29 0;
#X connect 29 0 20 0;
#X connect 30 0 31 0;
#X connect 30 1 31 1;
#X connect 33 0 8 1;
#X connect 35 0 36 0;
#X connect 36 0 28 0;
#X connect 37 0 8 1;
#X connect 38 0 8 1;
#X connect 38 0 27 0;
#X connect 40 0 8 1;
#X connect 41 0 42 0;
#X connect 44 0 47 0;
#X connect 45 0 46 0;
#X connect 46 0 52 1;
#X connect 47 0 45 0;
#X connect 48 0 98 0;
#X connect 50 0 67 0;
#X connect 51 0 52 0;
#X connect 52 0 30 0;
#X connect 52 0 53 0;
#X connect 54 0 62 0;
#X connect 55 0 61 0;
#X connect 56 0 61 1;
#X connect 57 0 54 0;
#X connect 58 0 59 0;
#X connect 58 0 60 0;
#X connect 59 0 58 1;
#X connect 60 0 56 0;
#X connect 62 0 55 0;
#X connect 62 1 58 0;
#X connect 63 0 64 0;
#X connect 64 0 58 1;
#X connect 65 0 64 0;
#X connect 67 0 51 0;
#X connect 69 0 70 0;
#X connect 70 0 71 0;
#X connect 71 0 72 0;
#X connect 71 1 76 1;
#X connect 72 0 76 0;
#X connect 73 0 74 0;
#X connect 73 0 76 1;
#X connect 74 0 75 0;
#X connect 75 0 72 1;
#X connect 76 0 77 0;
#X connect 76 0 89 0;
#X connect 77 0 78 0;
#X connect 77 1 83 0;
#X connect 78 0 79 0;
#X connect 78 1 84 0;
#X connect 79 0 80 0;
#X connect 80 0 81 0;
#X connect 81 0 82 0;
#X connect 83 0 86 0;
#X connect 84 0 85 0;
#X connect 85 0 82 0;
#X connect 86 0 79 1;
#X connect 86 1 87 0;
#X connect 87 0 84 1;
#X connect 88 0 69 0;
#X connect 93 0 92 0;
#X connect 94 0 93 0;
#X connect 95 0 97 0;
#X connect 96 0 95 0;
#X connect 98 0 44 0;
