#N canvas 331 49 1423 821 10;
#X obj 217 224 f;
#X obj 178 143 bng 15 250 50 0 empty empty empty 17 7 0 10 -262144
-1 -1;
#X obj 178 77 tgl 30 0 empty empty PLAY -50 7 0 18 -257985 -1 -1 0
1;
#X obj 178 116 metro 300;
#X obj 178 27 r \$0-off;
#X msg 178 52 0;
#X obj 235 195 r \$0-next;
#X obj 175 372 s \$0-next;
#X obj 372 197 loadbang;
#X obj 896 583 noteout 1;
#X obj 1009 76 vradio 15 1 1 5 empty empty octave 0 -8 0 10 -257985
-1 -1 2;
#X obj 981 30 loadbang;
#X obj 896 259 +;
#X obj 908 328 s \$0-NOTE;
#X obj 1033 388 random 5;
#X obj 1043 534 nbx 5 14 -1e+37 1e+37 0 0 empty empty duree 65 8 0
12 -204800 -1 -1 672 256;
#X obj 1033 413 tabread \$0-duree;
#X obj 896 350 t f b b;
#X obj 896 549 makenote;
#X obj 935 513 nbx 3 14 -1e+37 1e+37 0 0 empty empty vel 50 8 0 12
-204800 -1 -1 125 256;
#X obj 922 413 random 63;
#X obj 922 439 + 64;
#X obj 1091 509 s \$0-metro;
#X obj 1033 467 * 250;
#X obj 896 115 r \$0-nombre;
#X obj 30 461 cnv 15 600 300 empty empty empty 20 12 0 14 -232576 -66577
0;
#X obj 47 554 nbx 2 40 -1e+37 1e+37 0 0 empty empty empty 0 -8 0 32
-204800 -1 -1 76 256;
#X floatatom 47 683 5 0 0 2 _note - -, f 5;
#X floatatom 135 705 5 0 0 0 index - -, f 5;
#X obj 47 528 r \$0-NOTE;
#X obj 112 652 f;
#X obj 146 652 + 1;
#X obj 112 678 mod 100;
#X obj 47 729 tabwrite \$0-pianoroll;
#X obj 47 602 t f b;
#X obj 130 475 loadbang;
#X msg 130 596 0;
#N canvas 0 50 450 250 (subpatch) 0;
#X array \$0-pianoroll 100 float 2;
#X coords 0 128 100 0 400 256 1 0 0;
#X restore 217 490 graph;
#X obj 666 742 ctlout 123 1;
#X msg 666 717 0;
#X obj 666 694 bng 15 250 50 0 empty empty ALL_NOTES_OFF 17 7 0 10
-258113 -1 -1;
#X msg 786 717 0;
#X obj 786 694 bng 15 250 50 0 empty empty ALL_SOUNDS_OFF 17 7 0 10
-258113 -1 -1;
#X obj 786 742 ctlout 120 1;
#X obj 354 313 f;
#X obj 217 274 t f b;
#X obj 587 68 loadbang;
#X obj 587 38 table \$0-duree 5;
#X obj 587 91 f \$0;
#X msg 587 114 \; \$1-duree 0 1 2 4 2 1;
#X obj 565 70 bng 15 250 50 0 empty empty empty 17 7 0 10 -262144 -1
-1;
#X obj 588 235 loadbang;
#X obj 588 259 f \$0;
#X obj 566 236 bng 15 250 50 0 empty empty empty 17 7 0 10 -262144
-1 -1;
#X msg 588 283 \; \$1-do_majeur 0 48 50 52 53 55 57 59 60 62 64 65
67 69 71 72 74 76 77 79 81 83 84 86 88 89 91 93 95 96, f 18;
#X obj 587 193 table \$0-do_majeur 27;
#X msg 981 55 2, f 1;
#X obj 1009 157 - 2;
#X obj 251 372 s \$0-nombre;
#X obj 238 91 r \$0-metro;
#X obj 334 28 loadbang;
#X obj 337 103 hsl 80 15 20 1000 0 0 empty empty vitesse 8 7 0 10 -257985
-1 -1 2096 1;
#X obj 372 284 nbx 6 14 -1e+37 1e+37 0 0 empty empty empty 65 8 0 12
-204800 -1 -1 3.63645 256;
#X obj 1009 180 nbx 2 14 -1e+37 1e+37 0 0 empty empty empty 65 8 0
12 -204800 -1 -1 0 256;
#X obj 334 124 nbx 4 14 -1e+37 1e+37 0 0 empty empty empty 65 8 0 12
-204800 -1 -1 280 256;
#X obj 217 250 nbx 8 14 -1e+37 1e+37 0 0 empty empty empty 65 8 0 12
-204800 -1 -1 0.90414 256;
#X obj 1065 442 r \$0-vitesse;
#X obj 334 143 s \$0-vitesse;
#X floatatom 838 307 5 0 0 0 - - -, f 5;
#X obj 896 145 * 8;
#X obj 896 209 + 14;
#X obj 1009 202 * 7;
#X obj 896 176 int;
#X obj 1033 509 * 0.6;
#X obj 1091 467 hsl 80 15 0.05 1 0 0 empty empty intervalle 7 7 0 10
-257985 -1 -1 0 1;
#X obj 1089 486 nbx 4 14 -1e+37 1e+37 0 0 empty empty empty 65 8 0
12 -204800 -1 -1 0 256;
#X obj 33 62 loadbang;
#X obj 36 137 hsl 100 15 0.001 1 0 0 empty empty x(0-1) 8 7 0 10 -257985
-1 -1 4345 1;
#X obj 33 157 nbx 4 14 -1e+37 1e+37 0 0 empty empty empty 65 8 0 12
-204800 -1 -1 0.43945 256;
#X msg 33 85 0.5;
#X obj 375 242 hsl 100 15 0.001 4 0 0 empty empty r(0-4) 8 7 0 10 -257985
-1 -1 9000 1;
#X msg 372 219 0.7;
#X obj 896 283 tabread \$0-do_majeur;
#X text 28 341 x(n+1) = rx(1-x);
#X obj 175 340 expr $f2 * $f1 * (1 - $f1);
#X msg 334 51 280;
#X obj 1187 400 loadbang;
#X msg 1187 423 0.5;
#X connect 0 0 65 0;
#X connect 1 0 0 0;
#X connect 2 0 3 0;
#X connect 3 0 1 0;
#X connect 4 0 5 0;
#X connect 5 0 2 0;
#X connect 6 0 0 1;
#X connect 8 0 81 0;
#X connect 10 0 57 0;
#X connect 11 0 56 0;
#X connect 12 0 68 0;
#X connect 12 0 82 0;
#X connect 14 0 16 0;
#X connect 16 0 23 0;
#X connect 17 0 18 0;
#X connect 17 1 20 0;
#X connect 17 2 14 0;
#X connect 18 0 9 0;
#X connect 18 1 9 1;
#X connect 20 0 21 0;
#X connect 21 0 19 0;
#X connect 21 0 18 1;
#X connect 23 0 22 0;
#X connect 23 0 73 0;
#X connect 24 0 69 0;
#X connect 26 0 34 0;
#X connect 27 0 33 0;
#X connect 28 0 33 1;
#X connect 29 0 26 0;
#X connect 30 0 31 0;
#X connect 30 0 32 0;
#X connect 31 0 30 1;
#X connect 32 0 28 0;
#X connect 34 0 27 0;
#X connect 34 1 30 0;
#X connect 35 0 36 0;
#X connect 36 0 30 1;
#X connect 39 0 38 0;
#X connect 40 0 39 0;
#X connect 41 0 43 0;
#X connect 42 0 41 0;
#X connect 44 0 84 1;
#X connect 45 0 84 0;
#X connect 45 1 44 0;
#X connect 46 0 48 0;
#X connect 48 0 49 0;
#X connect 50 0 48 0;
#X connect 51 0 52 0;
#X connect 52 0 54 0;
#X connect 53 0 52 0;
#X connect 56 0 10 0;
#X connect 57 0 63 0;
#X connect 59 0 3 1;
#X connect 60 0 85 0;
#X connect 61 0 64 0;
#X connect 62 0 44 1;
#X connect 63 0 71 0;
#X connect 64 0 67 0;
#X connect 65 0 45 0;
#X connect 66 0 23 1;
#X connect 69 0 72 0;
#X connect 70 0 12 0;
#X connect 71 0 12 1;
#X connect 72 0 70 0;
#X connect 73 0 18 2;
#X connect 73 0 15 0;
#X connect 74 0 73 1;
#X connect 74 0 75 0;
#X connect 76 0 79 0;
#X connect 77 0 78 0;
#X connect 78 0 0 1;
#X connect 79 0 77 0;
#X connect 80 0 62 0;
#X connect 81 0 80 0;
#X connect 82 0 13 0;
#X connect 82 0 17 0;
#X connect 84 0 7 0;
#X connect 84 0 58 0;
#X connect 85 0 61 0;
#X connect 86 0 87 0;
#X connect 87 0 74 0;
